<svg xmlns="http://www.w3.org/2000/svg" width="256" height="256" viewBox="0 0 100 100"><rect width="100" height="100" rx="20" fill="#7d6ee7"></rect><path fill="#fff" d="M28.90 78.03L28.90 78.03Q20.98 78.03 16.70 74.44Q12.43 70.84 12.43 62.73L12.43 62.73L12.43 22.78Q13.42 22.51 15.26 22.19Q17.11 21.88 19.18 21.88L19.18 21.88Q23.59 21.88 25.57 23.41Q27.55 24.94 27.55 29.08L27.55 29.08L27.55 33.94L39.34 33.94Q39.88 34.93 40.37 36.41Q40.87 37.90 40.87 39.70L40.87 39.70Q40.87 42.85 39.47 44.24Q38.08 45.64 35.73 45.64L35.73 45.64L27.55 45.64L27.55 61.66Q27.55 64.00 29.03 64.98Q30.52 65.98 33.22 65.98L33.22 65.98Q34.57 65.98 36.01 65.75Q37.45 65.53 38.53 65.17L38.53 65.17Q39.34 66.16 39.92 67.37Q40.51 68.59 40.51 70.30L40.51 70.30Q40.51 73.72 37.94 75.88Q35.38 78.03 28.90 78.03ZM66.69 66.97L66.69 66.97Q68.22 66.97 70.07 66.65Q71.91 66.34 72.81 65.80L72.81 65.80L72.81 58.59L66.34 59.14Q63.81 59.31 62.20 60.22Q60.58 61.12 60.58 62.92L60.58 62.92Q60.58 64.72 61.97 65.84Q63.37 66.97 66.69 66.97ZM65.97 31.60L65.97 31.60Q70.84 31.60 74.84 32.59Q78.84 33.58 81.68 35.60Q84.52 37.63 86.05 40.73Q87.58 43.84 87.58 48.07L87.58 48.07L87.58 68.23Q87.58 70.56 86.27 72.05Q84.97 73.53 83.16 74.62L83.16 74.62Q77.31 78.13 66.69 78.13L66.69 78.13Q61.92 78.13 58.10 77.23Q54.28 76.33 51.53 74.53Q48.79 72.73 47.30 69.94Q45.82 67.15 45.82 63.46L45.82 63.46Q45.82 57.25 49.51 53.92Q53.20 50.59 60.94 49.78L60.94 49.78L72.72 48.52L72.72 47.89Q72.72 45.28 70.43 44.15Q68.14 43.03 63.81 43.03L63.81 43.03Q60.48 43.03 57.20 43.75Q53.91 44.47 51.30 45.55L51.30 45.55Q50.14 44.73 49.33 43.07Q48.52 41.41 48.52 39.61L48.52 39.61Q48.52 37.27 49.64 35.87Q50.77 34.48 53.11 33.49L53.11 33.49Q55.72 32.50 59.27 32.05Q62.83 31.60 65.97 31.60Z"></path></svg>